<svg preserveAspectRatio="none" overflow="visible" style="display: block;" width="73.826" height="69.0001" viewBox="0 0 73.826 69.0001" fill="none" xmlns="http://www.w3.org/2000/svg">
<g id="spin-arrow">
<g id="spin-arrow-vector">
<path d="M5.79205 34.5001C5.25852 34.5001 4.8246 34.0674 4.83953 33.5341C5.04585 26.1653 7.60805 19.0466 12.1634 13.2294C16.9175 7.15842 23.5685 2.85508 31.0545 1.00635C38.5406 -0.842376 46.4302 -0.129913 53.464 3.03001C60.4977 6.18994 66.2702 11.6152 69.8598 18.4396C73.4494 25.2641 74.6493 33.0945 73.2679 40.6807C71.8865 48.2669 68.0034 55.1717 62.2386 60.2928C56.4738 65.4139 49.1595 68.4561 41.4634 68.9338C34.089 69.3916 26.7714 67.4695 20.5827 63.4645C20.1348 63.1747 20.024 62.5719 20.3263 62.1323L24.1184 56.6173C24.4207 56.1777 25.0213 56.068 25.4719 56.3537C30.07 59.2688 35.4788 60.6637 40.929 60.3254C46.7011 59.9671 52.1868 57.6855 56.5105 53.8446C60.8341 50.0038 63.7464 44.8252 64.7824 39.1355C65.8185 33.4459 64.9185 27.5731 62.2263 22.4548C59.5341 17.3364 55.2048 13.2675 49.9295 10.8975C44.6542 8.5276 38.7369 7.99325 33.1224 9.37979C27.5078 10.7663 22.5196 13.9938 18.954 18.5471C15.5873 22.8464 13.6722 28.0937 13.469 33.5342C13.4491 34.0674 13.0185 34.5001 12.485 34.5001H5.79205Z" fill="black"/>
<path d="M10.7491 44.157C10.3652 44.714 9.54238 44.714 9.15841 44.157L0.172333 31.1212C-0.269439 30.4803 0.189323 29.6069 0.9677 29.6069H18.9399C19.7182 29.6069 20.177 30.4803 19.7352 31.1212L10.7491 44.157Z" fill="black"/>
</g>
</g>
</svg>
