<svg xmlns="http://www.w3.org/2000/svg" width="1366" height="654" viewBox="0 0 1366 654">
  <title>PIGGY FIREFIGHTERS wordmark</title>
  <desc>Editable master (tools/art/make_wordmark.py). Font: Alfa Slab One (SIL OFL 1.1, fonts/AlfaSlabOne-Regular.ttf). Groups: live-text, {ACCENT}-accent, outline-extrusion, ink-outline, typography-faces.</desc>
  <defs><style>@font-face{font-family:"Alfa Slab One";src:url("fonts/AlfaSlabOne-Regular.ttf");}.pf-live{font-family:"Alfa Slab One",serif;stroke:#2A1A10;paint-order:stroke;}</style></defs>
  <g id="live-text" display="none">
    <text class="pf-live" x="387.0" y="340.2" font-size="223" letter-spacing="8" fill="#F5D23C" stroke-width="36">PIGGY</text>
    <text class="pf-live" x="62.2" y="512.3" font-size="144" letter-spacing="4" fill="#F4E9D2" stroke-width="32">FIREFIGHTERS</text>
  </g>
  <g id="shield-accent">
    <polygon points="149.0,157.0 149.2,154.5 149.8,151.9 150.9,149.4 152.4,147.0 154.4,144.5 156.7,142.1 159.5,139.8 162.6,137.6 166.1,135.4 170.0,133.4 174.3,131.4 178.8,129.5 183.7,127.8 188.9,126.2 194.3,124.7 200.0,123.4 205.8,122.2 211.9,121.1 218.2,120.2 224.6,119.5 231.1,118.9 237.7,118.5 244.3,118.2 251.0,118.2 257.6,118.2 264.3,118.5 270.9,118.9 277.4,119.5 283.8,120.2 290.0,121.1 296.1,122.2 302.0,123.4 307.6,124.7 313.1,126.2 318.2,127.8 323.1,129.5 327.7,131.4 331.9,133.4 335.8,135.4 339.3,137.6 342.5,139.8 345.2,142.1 347.6,144.5 349.5,147.0 351.0,149.4 352.1,151.9 352.8,154.5 353.0,157.0 353.0,254.2 350.1,257.7 347.3,261.2 344.5,264.6 341.7,268.1 338.9,271.6 336.2,275.0 333.4,278.4 330.7,281.8 328.0,285.2 325.4,288.5 322.8,291.8 320.2,295.1 317.6,298.3 315.0,301.4 312.5,304.6 310.0,307.6 307.5,310.6 305.1,313.5 302.6,316.4 300.2,319.2 297.9,322.0 295.6,324.6 293.3,327.2 291.0,329.7 288.8,332.2 286.6,334.5 284.4,336.8 282.3,339.0 280.2,341.0 278.1,343.0 276.1,344.9 274.1,346.7 272.2,348.4 270.3,350.0 268.5,351.5 266.7,352.9 264.9,354.2 263.2,355.4 261.6,356.4 260.1,357.4 258.6,358.3 257.1,359.0 255.8,359.6 254.5,360.1 253.4,360.5 252.4,360.8 251.5,361.0 251.0,361.0 250.4,361.0 249.6,360.8 248.6,360.5 247.4,360.1 246.2,359.6 244.8,359.0 243.4,358.3 241.9,357.4 240.3,356.4 238.7,355.4 237.0,354.2 235.3,352.9 233.5,351.5 231.6,350.0 229.8,348.4 227.8,346.7 225.8,344.9 223.8,343.0 221.8,341.0 219.7,339.0 217.6,336.8 215.4,334.5 213.2,332.2 210.9,329.7 208.7,327.2 206.4,324.6 204.1,322.0 201.7,319.2 199.3,316.4 196.9,313.5 194.4,310.6 192.0,307.6 189.5,304.6 186.9,301.4 184.4,298.3 181.8,295.1 179.2,291.8 176.5,288.5 173.9,285.2 171.2,281.8 168.5,278.4 165.8,275.0 163.0,271.6 160.3,268.1 157.5,264.6 154.7,261.2 151.8,257.7 149.0,254.2 149.0,254.2" fill="#2A1A10" stroke="#2A1A10" stroke-width="36" stroke-linejoin="round"/>
    <polygon points="149.0,157.0 149.2,154.5 149.8,151.9 150.9,149.4 152.4,147.0 154.4,144.5 156.7,142.1 159.5,139.8 162.6,137.6 166.1,135.4 170.0,133.4 174.3,131.4 178.8,129.5 183.7,127.8 188.9,126.2 194.3,124.7 200.0,123.4 205.8,122.2 211.9,121.1 218.2,120.2 224.6,119.5 231.1,118.9 237.7,118.5 244.3,118.2 251.0,118.2 257.6,118.2 264.3,118.5 270.9,118.9 277.4,119.5 283.8,120.2 290.0,121.1 296.1,122.2 302.0,123.4 307.6,124.7 313.1,126.2 318.2,127.8 323.1,129.5 327.7,131.4 331.9,133.4 335.8,135.4 339.3,137.6 342.5,139.8 345.2,142.1 347.6,144.5 349.5,147.0 351.0,149.4 352.1,151.9 352.8,154.5 353.0,157.0 353.0,254.2 350.1,257.7 347.3,261.2 344.5,264.6 341.7,268.1 338.9,271.6 336.2,275.0 333.4,278.4 330.7,281.8 328.0,285.2 325.4,288.5 322.8,291.8 320.2,295.1 317.6,298.3 315.0,301.4 312.5,304.6 310.0,307.6 307.5,310.6 305.1,313.5 302.6,316.4 300.2,319.2 297.9,322.0 295.6,324.6 293.3,327.2 291.0,329.7 288.8,332.2 286.6,334.5 284.4,336.8 282.3,339.0 280.2,341.0 278.1,343.0 276.1,344.9 274.1,346.7 272.2,348.4 270.3,350.0 268.5,351.5 266.7,352.9 264.9,354.2 263.2,355.4 261.6,356.4 260.1,357.4 258.6,358.3 257.1,359.0 255.8,359.6 254.5,360.1 253.4,360.5 252.4,360.8 251.5,361.0 251.0,361.0 250.4,361.0 249.6,360.8 248.6,360.5 247.4,360.1 246.2,359.6 244.8,359.0 243.4,358.3 241.9,357.4 240.3,356.4 238.7,355.4 237.0,354.2 235.3,352.9 233.5,351.5 231.6,350.0 229.8,348.4 227.8,346.7 225.8,344.9 223.8,343.0 221.8,341.0 219.7,339.0 217.6,336.8 215.4,334.5 213.2,332.2 210.9,329.7 208.7,327.2 206.4,324.6 204.1,322.0 201.7,319.2 199.3,316.4 196.9,313.5 194.4,310.6 192.0,307.6 189.5,304.6 186.9,301.4 184.4,298.3 181.8,295.1 179.2,291.8 176.5,288.5 173.9,285.2 171.2,281.8 168.5,278.4 165.8,275.0 163.0,271.6 160.3,268.1 157.5,264.6 154.7,261.2 151.8,257.7 149.0,254.2 149.0,254.2" fill="#E9B23B"/>
    <polygon points="251.0,118.2 257.6,118.2 264.3,118.5 270.9,118.9 277.4,119.5 283.8,120.2 290.0,121.1 296.1,122.2 302.0,123.4 307.6,124.7 313.1,126.2 318.2,127.8 323.1,129.5 327.7,131.4 331.9,133.4 335.8,135.4 339.3,137.6 342.5,139.8 345.2,142.1 347.6,144.5 349.5,147.0 351.0,149.4 352.1,151.9 352.8,154.5 353.0,157.0 353.0,254.2 350.1,257.7 347.3,261.2 344.5,264.6 341.7,268.1 338.9,271.6 336.2,275.0 333.4,278.4 330.7,281.8 328.0,285.2 325.4,288.5 322.8,291.8 320.2,295.1 317.6,298.3 315.0,301.4 312.5,304.6 310.0,307.6 307.5,310.6 305.1,313.5 302.6,316.4 300.2,319.2 297.9,322.0 295.6,324.6 293.3,327.2 291.0,329.7 288.8,332.2 286.6,334.5 284.4,336.8 282.3,339.0 280.2,341.0 278.1,343.0 276.1,344.9 274.1,346.7 272.2,348.4 270.3,350.0 268.5,351.5 266.7,352.9 264.9,354.2 263.2,355.4 261.6,356.4 260.1,357.4 258.6,358.3 257.1,359.0 255.8,359.6 254.5,360.1 253.4,360.5 252.4,360.8 251.5,361.0 251.0,361.0 251.0,361.0 251.0,118.2" fill="#B07A1C"/>
    <polygon points="175.5,175.1 175.6,173.1 176.1,171.1 176.9,169.1 178.1,167.2 179.5,165.3 181.2,163.4 183.3,161.6 185.6,159.9 188.2,158.2 191.1,156.6 194.2,155.0 197.6,153.6 201.2,152.2 205.0,151.0 209.0,149.8 213.2,148.7 217.6,147.8 222.1,147.0 226.7,146.3 231.4,145.7 236.2,145.3 241.1,144.9 246.0,144.7 251.0,144.7 255.9,144.7 260.8,144.9 265.7,145.3 270.5,145.7 275.2,146.3 279.9,147.0 284.4,147.8 288.7,148.7 292.9,149.8 296.9,151.0 300.7,152.2 304.3,153.6 307.7,155.0 310.9,156.6 313.7,158.2 316.3,159.9 318.7,161.6 320.7,163.4 322.5,165.3 323.9,167.2 325.0,169.1 325.8,171.1 326.3,173.1 326.5,175.1 326.5,251.0 324.3,253.7 322.2,256.5 320.2,259.2 318.1,261.9 316.0,264.6 314.0,267.3 312.0,270.0 310.0,272.6 308.0,275.2 306.0,277.8 304.1,280.4 302.2,283.0 300.3,285.5 298.4,287.9 296.5,290.4 294.6,292.8 292.8,295.1 291.0,297.4 289.2,299.6 287.4,301.8 285.7,304.0 284.0,306.1 282.3,308.1 280.6,310.1 278.9,312.0 277.3,313.8 275.7,315.6 274.1,317.3 272.6,318.9 271.1,320.4 269.6,321.9 268.1,323.3 266.7,324.7 265.3,325.9 263.9,327.1 262.6,328.2 261.3,329.2 260.1,330.1 258.8,330.9 257.7,331.7 256.6,332.3 255.5,332.9 254.5,333.4 253.6,333.8 252.8,334.1 252.0,334.3 251.4,334.5 251.0,334.5 250.6,334.5 249.9,334.3 249.2,334.1 248.3,333.8 247.4,333.4 246.4,332.9 245.4,332.3 244.2,331.7 243.1,330.9 241.9,330.1 240.6,329.2 239.4,328.2 238.0,327.1 236.7,325.9 235.3,324.7 233.8,323.3 232.4,321.9 230.9,320.4 229.4,318.9 227.8,317.3 226.2,315.6 224.6,313.8 223.0,312.0 221.4,310.1 219.7,308.1 218.0,306.1 216.3,304.0 214.5,301.8 212.7,299.6 210.9,297.4 209.1,295.1 207.3,292.8 205.4,290.4 203.6,287.9 201.7,285.5 199.8,283.0 197.8,280.4 195.9,277.8 193.9,275.2 191.9,272.6 189.9,270.0 187.9,267.3 185.9,264.6 183.8,261.9 181.8,259.2 179.7,256.5 177.6,253.7 175.5,251.0 175.5,251.0" fill="#D7262B"/>
    <polygon points="251.0,144.7 255.9,144.7 260.8,144.9 265.7,145.3 270.5,145.7 275.2,146.3 279.9,147.0 284.4,147.8 288.7,148.7 292.9,149.8 296.9,151.0 300.7,152.2 304.3,153.6 307.7,155.0 310.9,156.6 313.7,158.2 316.3,159.9 318.7,161.6 320.7,163.4 322.5,165.3 323.9,167.2 325.0,169.1 325.8,171.1 326.3,173.1 326.5,175.1 326.5,251.0 324.3,253.7 322.2,256.5 320.2,259.2 318.1,261.9 316.0,264.6 314.0,267.3 312.0,270.0 310.0,272.6 308.0,275.2 306.0,277.8 304.1,280.4 302.2,283.0 300.3,285.5 298.4,287.9 296.5,290.4 294.6,292.8 292.8,295.1 291.0,297.4 289.2,299.6 287.4,301.8 285.7,304.0 284.0,306.1 282.3,308.1 280.6,310.1 278.9,312.0 277.3,313.8 275.7,315.6 274.1,317.3 272.6,318.9 271.1,320.4 269.6,321.9 268.1,323.3 266.7,324.7 265.3,325.9 263.9,327.1 262.6,328.2 261.3,329.2 260.1,330.1 258.8,330.9 257.7,331.7 256.6,332.3 255.5,332.9 254.5,333.4 253.6,333.8 252.8,334.1 252.0,334.3 251.4,334.5 251.0,334.5 251.0,334.5 251.0,144.7" fill="#961418"/>
    <polygon points="248.0,214.2 230.6,174.6 251.0,183.3 271.4,174.6 253.9,214.2 269.1,229.4 308.7,211.9 299.9,232.3 308.7,252.7 269.1,235.2 253.9,250.4 271.4,290.0 251.0,281.3 230.6,290.0 248.0,250.4 232.8,235.2 193.3,252.7 202.0,232.3 193.3,211.9 232.8,229.4" fill="#F4E9D2"/>
    <polygon points="175.5,175.1 175.6,173.1 176.1,171.1 176.9,169.1 178.1,167.2 179.5,165.3 181.2,163.4 183.3,161.6 185.6,159.9 188.2,158.2 191.1,156.6 194.2,155.0 197.6,153.6 201.2,152.2 205.0,151.0 209.0,149.8 213.2,148.7 217.6,147.8 222.1,147.0 226.7,146.3 231.4,145.7 236.2,145.3 241.1,144.9 246.0,144.7 251.0,144.7 255.9,144.7 260.8,144.9 265.7,145.3 270.5,145.7 275.2,146.3 279.9,147.0 284.4,147.8 288.7,148.7 292.9,149.8 296.9,151.0 300.7,152.2 304.3,153.6 307.7,155.0 310.9,156.6 313.7,158.2 316.3,159.9 318.7,161.6 320.7,163.4 322.5,165.3 323.9,167.2 325.0,169.1 325.8,171.1 326.3,173.1 326.5,175.1 326.5,251.0 324.3,253.7 322.2,256.5 320.2,259.2 318.1,261.9 316.0,264.6 314.0,267.3 312.0,270.0 310.0,272.6 308.0,275.2 306.0,277.8 304.1,280.4 302.2,283.0 300.3,285.5 298.4,287.9 296.5,290.4 294.6,292.8 292.8,295.1 291.0,297.4 289.2,299.6 287.4,301.8 285.7,304.0 284.0,306.1 282.3,308.1 280.6,310.1 278.9,312.0 277.3,313.8 275.7,315.6 274.1,317.3 272.6,318.9 271.1,320.4 269.6,321.9 268.1,323.3 266.7,324.7 265.3,325.9 263.9,327.1 262.6,328.2 261.3,329.2 260.1,330.1 258.8,330.9 257.7,331.7 256.6,332.3 255.5,332.9 254.5,333.4 253.6,333.8 252.8,334.1 252.0,334.3 251.4,334.5 251.0,334.5 250.6,334.5 249.9,334.3 249.2,334.1 248.3,333.8 247.4,333.4 246.4,332.9 245.4,332.3 244.2,331.7 243.1,330.9 241.9,330.1 240.6,329.2 239.4,328.2 238.0,327.1 236.7,325.9 235.3,324.7 233.8,323.3 232.4,321.9 230.9,320.4 229.4,318.9 227.8,317.3 226.2,315.6 224.6,313.8 223.0,312.0 221.4,310.1 219.7,308.1 218.0,306.1 216.3,304.0 214.5,301.8 212.7,299.6 210.9,297.4 209.1,295.1 207.3,292.8 205.4,290.4 203.6,287.9 201.7,285.5 199.8,283.0 197.8,280.4 195.9,277.8 193.9,275.2 191.9,272.6 189.9,270.0 187.9,267.3 185.9,264.6 183.8,261.9 181.8,259.2 179.7,256.5 177.6,253.7 175.5,251.0 175.5,251.0" fill="none" stroke="#2A1A10" stroke-width="7"/>
    <polygon points="248.0,214.2 230.6,174.6 251.0,183.3 271.4,174.6 253.9,214.2 269.1,229.4 308.7,211.9 299.9,232.3 308.7,252.7 269.1,235.2 253.9,250.4 271.4,290.0 251.0,281.3 230.6,290.0 248.0,250.4 232.8,235.2 193.3,252.7 202.0,232.3 193.3,211.9 232.8,229.4" fill="none" stroke="#2A1A10" stroke-width="6"/>
  </g>
  <g id="outline-extrusion">
    <g transform="translate(18,18)">
      <path transform="translate(386.98,340.22) scale(0.22300,-0.22300)" d="M20 164H70V614H20V778H459Q588 778 656.0 722.5Q724 667 724 543Q724 419 656.0 363.5Q588 308 459 308H350V164H446V0H20ZM384 450Q442 450 442 514V550Q442 583 427.5 598.5Q413 614 384 614H350V450Z" fill="#8C1216" stroke="#8C1216" stroke-width="36" stroke-linejoin="round"/>
      <path transform="translate(559.56,340.22) scale(0.22300,-0.22300)" d="M20 0V164H70V614H20V778H400V614H350V164H400V0Z" fill="#8C1216" stroke="#8C1216" stroke-width="36" stroke-linejoin="round"/>
      <path transform="translate(661.22,340.22) scale(0.22300,-0.22300)" d="M774 250H724V50Q680 25 595.5 5.5Q511 -14 413 -14Q226 -14 120.0 84.5Q14 183 14 389Q14 600 119.5 696.0Q225 792 421 792Q516 792 599.0 772.0Q682 752 724 727V488H474V535Q474 577 456.5 595.5Q439 614 401 614Q363 614 345.5 595.5Q328 577 328 535V243Q328 201 345.5 182.5Q363 164 401 164Q439 164 456.5 182.5Q474 201 474 243V250H420V399H774Z" fill="#8C1216" stroke="#8C1216" stroke-width="36" stroke-linejoin="round"/>
      <path transform="translate(843.61,340.22) scale(0.22300,-0.22300)" d="M774 250H724V50Q680 25 595.5 5.5Q511 -14 413 -14Q226 -14 120.0 84.5Q14 183 14 389Q14 600 119.5 696.0Q225 792 421 792Q516 792 599.0 772.0Q682 752 724 727V488H474V535Q474 577 456.5 595.5Q439 614 401 614Q363 614 345.5 595.5Q328 577 328 535V243Q328 201 345.5 182.5Q363 164 401 164Q439 164 456.5 182.5Q474 201 474 243V250H420V399H774Z" fill="#8C1216" stroke="#8C1216" stroke-width="36" stroke-linejoin="round"/>
      <path transform="translate(1026.00,340.22) scale(0.22300,-0.22300)" d="M457 778H764V614H724L531 268V164H581V0H201V164H251V268L52 614H12V778H399V614H364L423 459H433L492 614H457Z" fill="#8C1216" stroke="#8C1216" stroke-width="36" stroke-linejoin="round"/>
    </g>
    <g transform="translate(16,16)">
      <path transform="translate(386.98,340.22) scale(0.22300,-0.22300)" d="M20 164H70V614H20V778H459Q588 778 656.0 722.5Q724 667 724 543Q724 419 656.0 363.5Q588 308 459 308H350V164H446V0H20ZM384 450Q442 450 442 514V550Q442 583 427.5 598.5Q413 614 384 614H350V450Z" fill="#8C1216" stroke="#8C1216" stroke-width="36" stroke-linejoin="round"/>
      <path transform="translate(559.56,340.22) scale(0.22300,-0.22300)" d="M20 0V164H70V614H20V778H400V614H350V164H400V0Z" fill="#8C1216" stroke="#8C1216" stroke-width="36" stroke-linejoin="round"/>
      <path transform="translate(661.22,340.22) scale(0.22300,-0.22300)" d="M774 250H724V50Q680 25 595.5 5.5Q511 -14 413 -14Q226 -14 120.0 84.5Q14 183 14 389Q14 600 119.5 696.0Q225 792 421 792Q516 792 599.0 772.0Q682 752 724 727V488H474V535Q474 577 456.5 595.5Q439 614 401 614Q363 614 345.5 595.5Q328 577 328 535V243Q328 201 345.5 182.5Q363 164 401 164Q439 164 456.5 182.5Q474 201 474 243V250H420V399H774Z" fill="#8C1216" stroke="#8C1216" stroke-width="36" stroke-linejoin="round"/>
      <path transform="translate(843.61,340.22) scale(0.22300,-0.22300)" d="M774 250H724V50Q680 25 595.5 5.5Q511 -14 413 -14Q226 -14 120.0 84.5Q14 183 14 389Q14 600 119.5 696.0Q225 792 421 792Q516 792 599.0 772.0Q682 752 724 727V488H474V535Q474 577 456.5 595.5Q439 614 401 614Q363 614 345.5 595.5Q328 577 328 535V243Q328 201 345.5 182.5Q363 164 401 164Q439 164 456.5 182.5Q474 201 474 243V250H420V399H774Z" fill="#8C1216" stroke="#8C1216" stroke-width="36" stroke-linejoin="round"/>
      <path transform="translate(1026.00,340.22) scale(0.22300,-0.22300)" d="M457 778H764V614H724L531 268V164H581V0H201V164H251V268L52 614H12V778H399V614H364L423 459H433L492 614H457Z" fill="#8C1216" stroke="#8C1216" stroke-width="36" stroke-linejoin="round"/>
    </g>
    <g transform="translate(14,14)">
      <path transform="translate(386.98,340.22) scale(0.22300,-0.22300)" d="M20 164H70V614H20V778H459Q588 778 656.0 722.5Q724 667 724 543Q724 419 656.0 363.5Q588 308 459 308H350V164H446V0H20ZM384 450Q442 450 442 514V550Q442 583 427.5 598.5Q413 614 384 614H350V450Z" fill="#8C1216" stroke="#8C1216" stroke-width="36" stroke-linejoin="round"/>
      <path transform="translate(559.56,340.22) scale(0.22300,-0.22300)" d="M20 0V164H70V614H20V778H400V614H350V164H400V0Z" fill="#8C1216" stroke="#8C1216" stroke-width="36" stroke-linejoin="round"/>
      <path transform="translate(661.22,340.22) scale(0.22300,-0.22300)" d="M774 250H724V50Q680 25 595.5 5.5Q511 -14 413 -14Q226 -14 120.0 84.5Q14 183 14 389Q14 600 119.5 696.0Q225 792 421 792Q516 792 599.0 772.0Q682 752 724 727V488H474V535Q474 577 456.5 595.5Q439 614 401 614Q363 614 345.5 595.5Q328 577 328 535V243Q328 201 345.5 182.5Q363 164 401 164Q439 164 456.5 182.5Q474 201 474 243V250H420V399H774Z" fill="#8C1216" stroke="#8C1216" stroke-width="36" stroke-linejoin="round"/>
      <path transform="translate(843.61,340.22) scale(0.22300,-0.22300)" d="M774 250H724V50Q680 25 595.5 5.5Q511 -14 413 -14Q226 -14 120.0 84.5Q14 183 14 389Q14 600 119.5 696.0Q225 792 421 792Q516 792 599.0 772.0Q682 752 724 727V488H474V535Q474 577 456.5 595.5Q439 614 401 614Q363 614 345.5 595.5Q328 577 328 535V243Q328 201 345.5 182.5Q363 164 401 164Q439 164 456.5 182.5Q474 201 474 243V250H420V399H774Z" fill="#8C1216" stroke="#8C1216" stroke-width="36" stroke-linejoin="round"/>
      <path transform="translate(1026.00,340.22) scale(0.22300,-0.22300)" d="M457 778H764V614H724L531 268V164H581V0H201V164H251V268L52 614H12V778H399V614H364L423 459H433L492 614H457Z" fill="#8C1216" stroke="#8C1216" stroke-width="36" stroke-linejoin="round"/>
    </g>
    <g transform="translate(12,12)">
      <path transform="translate(386.98,340.22) scale(0.22300,-0.22300)" d="M20 164H70V614H20V778H459Q588 778 656.0 722.5Q724 667 724 543Q724 419 656.0 363.5Q588 308 459 308H350V164H446V0H20ZM384 450Q442 450 442 514V550Q442 583 427.5 598.5Q413 614 384 614H350V450Z" fill="#8C1216" stroke="#8C1216" stroke-width="36" stroke-linejoin="round"/>
      <path transform="translate(559.56,340.22) scale(0.22300,-0.22300)" d="M20 0V164H70V614H20V778H400V614H350V164H400V0Z" fill="#8C1216" stroke="#8C1216" stroke-width="36" stroke-linejoin="round"/>
      <path transform="translate(661.22,340.22) scale(0.22300,-0.22300)" d="M774 250H724V50Q680 25 595.5 5.5Q511 -14 413 -14Q226 -14 120.0 84.5Q14 183 14 389Q14 600 119.5 696.0Q225 792 421 792Q516 792 599.0 772.0Q682 752 724 727V488H474V535Q474 577 456.5 595.5Q439 614 401 614Q363 614 345.5 595.5Q328 577 328 535V243Q328 201 345.5 182.5Q363 164 401 164Q439 164 456.5 182.5Q474 201 474 243V250H420V399H774Z" fill="#8C1216" stroke="#8C1216" stroke-width="36" stroke-linejoin="round"/>
      <path transform="translate(843.61,340.22) scale(0.22300,-0.22300)" d="M774 250H724V50Q680 25 595.5 5.5Q511 -14 413 -14Q226 -14 120.0 84.5Q14 183 14 389Q14 600 119.5 696.0Q225 792 421 792Q516 792 599.0 772.0Q682 752 724 727V488H474V535Q474 577 456.5 595.5Q439 614 401 614Q363 614 345.5 595.5Q328 577 328 535V243Q328 201 345.5 182.5Q363 164 401 164Q439 164 456.5 182.5Q474 201 474 243V250H420V399H774Z" fill="#8C1216" stroke="#8C1216" stroke-width="36" stroke-linejoin="round"/>
      <path transform="translate(1026.00,340.22) scale(0.22300,-0.22300)" d="M457 778H764V614H724L531 268V164H581V0H201V164H251V268L52 614H12V778H399V614H364L423 459H433L492 614H457Z" fill="#8C1216" stroke="#8C1216" stroke-width="36" stroke-linejoin="round"/>
    </g>
    <g transform="translate(10,10)">
      <path transform="translate(386.98,340.22) scale(0.22300,-0.22300)" d="M20 164H70V614H20V778H459Q588 778 656.0 722.5Q724 667 724 543Q724 419 656.0 363.5Q588 308 459 308H350V164H446V0H20ZM384 450Q442 450 442 514V550Q442 583 427.5 598.5Q413 614 384 614H350V450Z" fill="#8C1216" stroke="#8C1216" stroke-width="36" stroke-linejoin="round"/>
      <path transform="translate(559.56,340.22) scale(0.22300,-0.22300)" d="M20 0V164H70V614H20V778H400V614H350V164H400V0Z" fill="#8C1216" stroke="#8C1216" stroke-width="36" stroke-linejoin="round"/>
      <path transform="translate(661.22,340.22) scale(0.22300,-0.22300)" d="M774 250H724V50Q680 25 595.5 5.5Q511 -14 413 -14Q226 -14 120.0 84.5Q14 183 14 389Q14 600 119.5 696.0Q225 792 421 792Q516 792 599.0 772.0Q682 752 724 727V488H474V535Q474 577 456.5 595.5Q439 614 401 614Q363 614 345.5 595.5Q328 577 328 535V243Q328 201 345.5 182.5Q363 164 401 164Q439 164 456.5 182.5Q474 201 474 243V250H420V399H774Z" fill="#8C1216" stroke="#8C1216" stroke-width="36" stroke-linejoin="round"/>
      <path transform="translate(843.61,340.22) scale(0.22300,-0.22300)" d="M774 250H724V50Q680 25 595.5 5.5Q511 -14 413 -14Q226 -14 120.0 84.5Q14 183 14 389Q14 600 119.5 696.0Q225 792 421 792Q516 792 599.0 772.0Q682 752 724 727V488H474V535Q474 577 456.5 595.5Q439 614 401 614Q363 614 345.5 595.5Q328 577 328 535V243Q328 201 345.5 182.5Q363 164 401 164Q439 164 456.5 182.5Q474 201 474 243V250H420V399H774Z" fill="#8C1216" stroke="#8C1216" stroke-width="36" stroke-linejoin="round"/>
      <path transform="translate(1026.00,340.22) scale(0.22300,-0.22300)" d="M457 778H764V614H724L531 268V164H581V0H201V164H251V268L52 614H12V778H399V614H364L423 459H433L492 614H457Z" fill="#8C1216" stroke="#8C1216" stroke-width="36" stroke-linejoin="round"/>
    </g>
    <g transform="translate(8,8)">
      <path transform="translate(386.98,340.22) scale(0.22300,-0.22300)" d="M20 164H70V614H20V778H459Q588 778 656.0 722.5Q724 667 724 543Q724 419 656.0 363.5Q588 308 459 308H350V164H446V0H20ZM384 450Q442 450 442 514V550Q442 583 427.5 598.5Q413 614 384 614H350V450Z" fill="#C41E24" stroke="#C41E24" stroke-width="36" stroke-linejoin="round"/>
      <path transform="translate(559.56,340.22) scale(0.22300,-0.22300)" d="M20 0V164H70V614H20V778H400V614H350V164H400V0Z" fill="#C41E24" stroke="#C41E24" stroke-width="36" stroke-linejoin="round"/>
      <path transform="translate(661.22,340.22) scale(0.22300,-0.22300)" d="M774 250H724V50Q680 25 595.5 5.5Q511 -14 413 -14Q226 -14 120.0 84.5Q14 183 14 389Q14 600 119.5 696.0Q225 792 421 792Q516 792 599.0 772.0Q682 752 724 727V488H474V535Q474 577 456.5 595.5Q439 614 401 614Q363 614 345.5 595.5Q328 577 328 535V243Q328 201 345.5 182.5Q363 164 401 164Q439 164 456.5 182.5Q474 201 474 243V250H420V399H774Z" fill="#C41E24" stroke="#C41E24" stroke-width="36" stroke-linejoin="round"/>
      <path transform="translate(843.61,340.22) scale(0.22300,-0.22300)" d="M774 250H724V50Q680 25 595.5 5.5Q511 -14 413 -14Q226 -14 120.0 84.5Q14 183 14 389Q14 600 119.5 696.0Q225 792 421 792Q516 792 599.0 772.0Q682 752 724 727V488H474V535Q474 577 456.5 595.5Q439 614 401 614Q363 614 345.5 595.5Q328 577 328 535V243Q328 201 345.5 182.5Q363 164 401 164Q439 164 456.5 182.5Q474 201 474 243V250H420V399H774Z" fill="#C41E24" stroke="#C41E24" stroke-width="36" stroke-linejoin="round"/>
      <path transform="translate(1026.00,340.22) scale(0.22300,-0.22300)" d="M457 778H764V614H724L531 268V164H581V0H201V164H251V268L52 614H12V778H399V614H364L423 459H433L492 614H457Z" fill="#C41E24" stroke="#C41E24" stroke-width="36" stroke-linejoin="round"/>
    </g>
    <g transform="translate(6,6)">
      <path transform="translate(386.98,340.22) scale(0.22300,-0.22300)" d="M20 164H70V614H20V778H459Q588 778 656.0 722.5Q724 667 724 543Q724 419 656.0 363.5Q588 308 459 308H350V164H446V0H20ZM384 450Q442 450 442 514V550Q442 583 427.5 598.5Q413 614 384 614H350V450Z" fill="#C41E24" stroke="#C41E24" stroke-width="36" stroke-linejoin="round"/>
      <path transform="translate(559.56,340.22) scale(0.22300,-0.22300)" d="M20 0V164H70V614H20V778H400V614H350V164H400V0Z" fill="#C41E24" stroke="#C41E24" stroke-width="36" stroke-linejoin="round"/>
      <path transform="translate(661.22,340.22) scale(0.22300,-0.22300)" d="M774 250H724V50Q680 25 595.5 5.5Q511 -14 413 -14Q226 -14 120.0 84.5Q14 183 14 389Q14 600 119.5 696.0Q225 792 421 792Q516 792 599.0 772.0Q682 752 724 727V488H474V535Q474 577 456.5 595.5Q439 614 401 614Q363 614 345.5 595.5Q328 577 328 535V243Q328 201 345.5 182.5Q363 164 401 164Q439 164 456.5 182.5Q474 201 474 243V250H420V399H774Z" fill="#C41E24" stroke="#C41E24" stroke-width="36" stroke-linejoin="round"/>
      <path transform="translate(843.61,340.22) scale(0.22300,-0.22300)" d="M774 250H724V50Q680 25 595.5 5.5Q511 -14 413 -14Q226 -14 120.0 84.5Q14 183 14 389Q14 600 119.5 696.0Q225 792 421 792Q516 792 599.0 772.0Q682 752 724 727V488H474V535Q474 577 456.5 595.5Q439 614 401 614Q363 614 345.5 595.5Q328 577 328 535V243Q328 201 345.5 182.5Q363 164 401 164Q439 164 456.5 182.5Q474 201 474 243V250H420V399H774Z" fill="#C41E24" stroke="#C41E24" stroke-width="36" stroke-linejoin="round"/>
      <path transform="translate(1026.00,340.22) scale(0.22300,-0.22300)" d="M457 778H764V614H724L531 268V164H581V0H201V164H251V268L52 614H12V778H399V614H364L423 459H433L492 614H457Z" fill="#C41E24" stroke="#C41E24" stroke-width="36" stroke-linejoin="round"/>
    </g>
    <g transform="translate(4,4)">
      <path transform="translate(386.98,340.22) scale(0.22300,-0.22300)" d="M20 164H70V614H20V778H459Q588 778 656.0 722.5Q724 667 724 543Q724 419 656.0 363.5Q588 308 459 308H350V164H446V0H20ZM384 450Q442 450 442 514V550Q442 583 427.5 598.5Q413 614 384 614H350V450Z" fill="#C41E24" stroke="#C41E24" stroke-width="36" stroke-linejoin="round"/>
      <path transform="translate(559.56,340.22) scale(0.22300,-0.22300)" d="M20 0V164H70V614H20V778H400V614H350V164H400V0Z" fill="#C41E24" stroke="#C41E24" stroke-width="36" stroke-linejoin="round"/>
      <path transform="translate(661.22,340.22) scale(0.22300,-0.22300)" d="M774 250H724V50Q680 25 595.5 5.5Q511 -14 413 -14Q226 -14 120.0 84.5Q14 183 14 389Q14 600 119.5 696.0Q225 792 421 792Q516 792 599.0 772.0Q682 752 724 727V488H474V535Q474 577 456.5 595.5Q439 614 401 614Q363 614 345.5 595.5Q328 577 328 535V243Q328 201 345.5 182.5Q363 164 401 164Q439 164 456.5 182.5Q474 201 474 243V250H420V399H774Z" fill="#C41E24" stroke="#C41E24" stroke-width="36" stroke-linejoin="round"/>
      <path transform="translate(843.61,340.22) scale(0.22300,-0.22300)" d="M774 250H724V50Q680 25 595.5 5.5Q511 -14 413 -14Q226 -14 120.0 84.5Q14 183 14 389Q14 600 119.5 696.0Q225 792 421 792Q516 792 599.0 772.0Q682 752 724 727V488H474V535Q474 577 456.5 595.5Q439 614 401 614Q363 614 345.5 595.5Q328 577 328 535V243Q328 201 345.5 182.5Q363 164 401 164Q439 164 456.5 182.5Q474 201 474 243V250H420V399H774Z" fill="#C41E24" stroke="#C41E24" stroke-width="36" stroke-linejoin="round"/>
      <path transform="translate(1026.00,340.22) scale(0.22300,-0.22300)" d="M457 778H764V614H724L531 268V164H581V0H201V164H251V268L52 614H12V778H399V614H364L423 459H433L492 614H457Z" fill="#C41E24" stroke="#C41E24" stroke-width="36" stroke-linejoin="round"/>
    </g>
    <g transform="translate(2,2)">
      <path transform="translate(386.98,340.22) scale(0.22300,-0.22300)" d="M20 164H70V614H20V778H459Q588 778 656.0 722.5Q724 667 724 543Q724 419 656.0 363.5Q588 308 459 308H350V164H446V0H20ZM384 450Q442 450 442 514V550Q442 583 427.5 598.5Q413 614 384 614H350V450Z" fill="#C41E24" stroke="#C41E24" stroke-width="36" stroke-linejoin="round"/>
      <path transform="translate(559.56,340.22) scale(0.22300,-0.22300)" d="M20 0V164H70V614H20V778H400V614H350V164H400V0Z" fill="#C41E24" stroke="#C41E24" stroke-width="36" stroke-linejoin="round"/>
      <path transform="translate(661.22,340.22) scale(0.22300,-0.22300)" d="M774 250H724V50Q680 25 595.5 5.5Q511 -14 413 -14Q226 -14 120.0 84.5Q14 183 14 389Q14 600 119.5 696.0Q225 792 421 792Q516 792 599.0 772.0Q682 752 724 727V488H474V535Q474 577 456.5 595.5Q439 614 401 614Q363 614 345.5 595.5Q328 577 328 535V243Q328 201 345.5 182.5Q363 164 401 164Q439 164 456.5 182.5Q474 201 474 243V250H420V399H774Z" fill="#C41E24" stroke="#C41E24" stroke-width="36" stroke-linejoin="round"/>
      <path transform="translate(843.61,340.22) scale(0.22300,-0.22300)" d="M774 250H724V50Q680 25 595.5 5.5Q511 -14 413 -14Q226 -14 120.0 84.5Q14 183 14 389Q14 600 119.5 696.0Q225 792 421 792Q516 792 599.0 772.0Q682 752 724 727V488H474V535Q474 577 456.5 595.5Q439 614 401 614Q363 614 345.5 595.5Q328 577 328 535V243Q328 201 345.5 182.5Q363 164 401 164Q439 164 456.5 182.5Q474 201 474 243V250H420V399H774Z" fill="#C41E24" stroke="#C41E24" stroke-width="36" stroke-linejoin="round"/>
      <path transform="translate(1026.00,340.22) scale(0.22300,-0.22300)" d="M457 778H764V614H724L531 268V164H581V0H201V164H251V268L52 614H12V778H399V614H364L423 459H433L492 614H457Z" fill="#C41E24" stroke="#C41E24" stroke-width="36" stroke-linejoin="round"/>
    </g>
    <g transform="translate(16,16)">
      <path transform="translate(62.16,512.26) scale(0.14400,-0.14400)" d="M20 0V164H70V614H20V778H618V519H441V614H350V448H501V334H350V164H481V0Z" fill="#B07A1C" stroke="#B07A1C" stroke-width="32" stroke-linejoin="round"/>
      <path transform="translate(157.17,512.26) scale(0.14400,-0.14400)" d="M20 0V164H70V614H20V778H400V614H350V164H400V0Z" fill="#B07A1C" stroke="#B07A1C" stroke-width="32" stroke-linejoin="round"/>
      <path transform="translate(221.66,512.26) scale(0.14400,-0.14400)" d="M20 164H70V614H20V778H479Q608 778 676.0 725.0Q744 672 744 553Q744 486 717.0 437.0Q690 388 640 369L641 359Q737 344 737 241V164H784V0H467V235Q467 274 455.5 294.0Q444 314 419.5 321.0Q395 328 350 328V164H416V0H20ZM404 450Q433 450 447.5 465.5Q462 481 462 514V550Q462 583 447.5 598.5Q433 614 404 614H350V450Z" fill="#B07A1C" stroke="#B07A1C" stroke-width="32" stroke-linejoin="round"/>
      <path transform="translate(340.86,512.26) scale(0.14400,-0.14400)" d="M20 0V164H70V614H20V778H695V476H471V614H350V456H438V342H350V164H471V322H695V0Z" fill="#B07A1C" stroke="#B07A1C" stroke-width="32" stroke-linejoin="round"/>
      <path transform="translate(447.53,512.26) scale(0.14400,-0.14400)" d="M20 0V164H70V614H20V778H618V519H441V614H350V448H501V334H350V164H481V0Z" fill="#B07A1C" stroke="#B07A1C" stroke-width="32" stroke-linejoin="round"/>
      <path transform="translate(542.55,512.26) scale(0.14400,-0.14400)" d="M20 0V164H70V614H20V778H400V614H350V164H400V0Z" fill="#B07A1C" stroke="#B07A1C" stroke-width="32" stroke-linejoin="round"/>
      <path transform="translate(607.03,512.26) scale(0.14400,-0.14400)" d="M774 250H724V50Q680 25 595.5 5.5Q511 -14 413 -14Q226 -14 120.0 84.5Q14 183 14 389Q14 600 119.5 696.0Q225 792 421 792Q516 792 599.0 772.0Q682 752 724 727V488H474V535Q474 577 456.5 595.5Q439 614 401 614Q363 614 345.5 595.5Q328 577 328 535V243Q328 201 345.5 182.5Q363 164 401 164Q439 164 456.5 182.5Q474 201 474 243V250H420V399H774Z" fill="#B07A1C" stroke="#B07A1C" stroke-width="32" stroke-linejoin="round"/>
      <path transform="translate(723.64,512.26) scale(0.14400,-0.14400)" d="M820 614H770V164H820V0H442V164H490V329H350V164H398V0H20V164H70V614H20V778H398V614H350V462H490V614H442V778H820Z" fill="#B07A1C" stroke="#B07A1C" stroke-width="32" stroke-linejoin="round"/>
      <path transform="translate(848.59,512.26) scale(0.14400,-0.14400)" d="M766 536H594V614H530V164H600V0H180V164H250V614H186V536H14V778H766Z" fill="#B07A1C" stroke="#B07A1C" stroke-width="32" stroke-linejoin="round"/>
      <path transform="translate(964.91,512.26) scale(0.14400,-0.14400)" d="M20 0V164H70V614H20V778H695V476H471V614H350V456H438V342H350V164H471V322H695V0Z" fill="#B07A1C" stroke="#B07A1C" stroke-width="32" stroke-linejoin="round"/>
      <path transform="translate(1071.58,512.26) scale(0.14400,-0.14400)" d="M20 164H70V614H20V778H479Q608 778 676.0 725.0Q744 672 744 553Q744 486 717.0 437.0Q690 388 640 369L641 359Q737 344 737 241V164H784V0H467V235Q467 274 455.5 294.0Q444 314 419.5 321.0Q395 328 350 328V164H416V0H20ZM404 450Q433 450 447.5 465.5Q462 481 462 514V550Q462 583 447.5 598.5Q433 614 404 614H350V450Z" fill="#B07A1C" stroke="#B07A1C" stroke-width="32" stroke-linejoin="round"/>
      <path transform="translate(1190.78,512.26) scale(0.14400,-0.14400)" d="M17 40V238H237Q237 207 251.0 193.0Q265 179 302 179Q333 179 346.5 188.5Q360 198 360 217Q360 233 347.0 244.5Q334 256 302 268L216 298Q105 340 56.5 397.0Q8 454 8 551Q8 669 85.5 730.5Q163 792 344 792Q431 792 507.5 774.5Q584 757 631 728V549H431Q431 599 369 599Q339 599 326.5 591.5Q314 584 314 565Q314 548 328.5 538.0Q343 528 376 517L463 487Q569 451 617.5 393.5Q666 336 666 243Q666 116 580.5 51.0Q495 -14 330 -14Q234 -14 148.5 2.5Q63 19 17 40Z" fill="#B07A1C" stroke="#B07A1C" stroke-width="32" stroke-linejoin="round"/>
    </g>
    <g transform="translate(14,14)">
      <path transform="translate(62.16,512.26) scale(0.14400,-0.14400)" d="M20 0V164H70V614H20V778H618V519H441V614H350V448H501V334H350V164H481V0Z" fill="#B07A1C" stroke="#B07A1C" stroke-width="32" stroke-linejoin="round"/>
      <path transform="translate(157.17,512.26) scale(0.14400,-0.14400)" d="M20 0V164H70V614H20V778H400V614H350V164H400V0Z" fill="#B07A1C" stroke="#B07A1C" stroke-width="32" stroke-linejoin="round"/>
      <path transform="translate(221.66,512.26) scale(0.14400,-0.14400)" d="M20 164H70V614H20V778H479Q608 778 676.0 725.0Q744 672 744 553Q744 486 717.0 437.0Q690 388 640 369L641 359Q737 344 737 241V164H784V0H467V235Q467 274 455.5 294.0Q444 314 419.5 321.0Q395 328 350 328V164H416V0H20ZM404 450Q433 450 447.5 465.5Q462 481 462 514V550Q462 583 447.5 598.5Q433 614 404 614H350V450Z" fill="#B07A1C" stroke="#B07A1C" stroke-width="32" stroke-linejoin="round"/>
      <path transform="translate(340.86,512.26) scale(0.14400,-0.14400)" d="M20 0V164H70V614H20V778H695V476H471V614H350V456H438V342H350V164H471V322H695V0Z" fill="#B07A1C" stroke="#B07A1C" stroke-width="32" stroke-linejoin="round"/>
      <path transform="translate(447.53,512.26) scale(0.14400,-0.14400)" d="M20 0V164H70V614H20V778H618V519H441V614H350V448H501V334H350V164H481V0Z" fill="#B07A1C" stroke="#B07A1C" stroke-width="32" stroke-linejoin="round"/>
      <path transform="translate(542.55,512.26) scale(0.14400,-0.14400)" d="M20 0V164H70V614H20V778H400V614H350V164H400V0Z" fill="#B07A1C" stroke="#B07A1C" stroke-width="32" stroke-linejoin="round"/>
      <path transform="translate(607.03,512.26) scale(0.14400,-0.14400)" d="M774 250H724V50Q680 25 595.5 5.5Q511 -14 413 -14Q226 -14 120.0 84.5Q14 183 14 389Q14 600 119.5 696.0Q225 792 421 792Q516 792 599.0 772.0Q682 752 724 727V488H474V535Q474 577 456.5 595.5Q439 614 401 614Q363 614 345.5 595.5Q328 577 328 535V243Q328 201 345.5 182.5Q363 164 401 164Q439 164 456.5 182.5Q474 201 474 243V250H420V399H774Z" fill="#B07A1C" stroke="#B07A1C" stroke-width="32" stroke-linejoin="round"/>
      <path transform="translate(723.64,512.26) scale(0.14400,-0.14400)" d="M820 614H770V164H820V0H442V164H490V329H350V164H398V0H20V164H70V614H20V778H398V614H350V462H490V614H442V778H820Z" fill="#B07A1C" stroke="#B07A1C" stroke-width="32" stroke-linejoin="round"/>
      <path transform="translate(848.59,512.26) scale(0.14400,-0.14400)" d="M766 536H594V614H530V164H600V0H180V164H250V614H186V536H14V778H766Z" fill="#B07A1C" stroke="#B07A1C" stroke-width="32" stroke-linejoin="round"/>
      <path transform="translate(964.91,512.26) scale(0.14400,-0.14400)" d="M20 0V164H70V614H20V778H695V476H471V614H350V456H438V342H350V164H471V322H695V0Z" fill="#B07A1C" stroke="#B07A1C" stroke-width="32" stroke-linejoin="round"/>
      <path transform="translate(1071.58,512.26) scale(0.14400,-0.14400)" d="M20 164H70V614H20V778H479Q608 778 676.0 725.0Q744 672 744 553Q744 486 717.0 437.0Q690 388 640 369L641 359Q737 344 737 241V164H784V0H467V235Q467 274 455.5 294.0Q444 314 419.5 321.0Q395 328 350 328V164H416V0H20ZM404 450Q433 450 447.5 465.5Q462 481 462 514V550Q462 583 447.5 598.5Q433 614 404 614H350V450Z" fill="#B07A1C" stroke="#B07A1C" stroke-width="32" stroke-linejoin="round"/>
      <path transform="translate(1190.78,512.26) scale(0.14400,-0.14400)" d="M17 40V238H237Q237 207 251.0 193.0Q265 179 302 179Q333 179 346.5 188.5Q360 198 360 217Q360 233 347.0 244.5Q334 256 302 268L216 298Q105 340 56.5 397.0Q8 454 8 551Q8 669 85.5 730.5Q163 792 344 792Q431 792 507.5 774.5Q584 757 631 728V549H431Q431 599 369 599Q339 599 326.5 591.5Q314 584 314 565Q314 548 328.5 538.0Q343 528 376 517L463 487Q569 451 617.5 393.5Q666 336 666 243Q666 116 580.5 51.0Q495 -14 330 -14Q234 -14 148.5 2.5Q63 19 17 40Z" fill="#B07A1C" stroke="#B07A1C" stroke-width="32" stroke-linejoin="round"/>
    </g>
    <g transform="translate(12,12)">
      <path transform="translate(62.16,512.26) scale(0.14400,-0.14400)" d="M20 0V164H70V614H20V778H618V519H441V614H350V448H501V334H350V164H481V0Z" fill="#B07A1C" stroke="#B07A1C" stroke-width="32" stroke-linejoin="round"/>
      <path transform="translate(157.17,512.26) scale(0.14400,-0.14400)" d="M20 0V164H70V614H20V778H400V614H350V164H400V0Z" fill="#B07A1C" stroke="#B07A1C" stroke-width="32" stroke-linejoin="round"/>
      <path transform="translate(221.66,512.26) scale(0.14400,-0.14400)" d="M20 164H70V614H20V778H479Q608 778 676.0 725.0Q744 672 744 553Q744 486 717.0 437.0Q690 388 640 369L641 359Q737 344 737 241V164H784V0H467V235Q467 274 455.5 294.0Q444 314 419.5 321.0Q395 328 350 328V164H416V0H20ZM404 450Q433 450 447.5 465.5Q462 481 462 514V550Q462 583 447.5 598.5Q433 614 404 614H350V450Z" fill="#B07A1C" stroke="#B07A1C" stroke-width="32" stroke-linejoin="round"/>
      <path transform="translate(340.86,512.26) scale(0.14400,-0.14400)" d="M20 0V164H70V614H20V778H695V476H471V614H350V456H438V342H350V164H471V322H695V0Z" fill="#B07A1C" stroke="#B07A1C" stroke-width="32" stroke-linejoin="round"/>
      <path transform="translate(447.53,512.26) scale(0.14400,-0.14400)" d="M20 0V164H70V614H20V778H618V519H441V614H350V448H501V334H350V164H481V0Z" fill="#B07A1C" stroke="#B07A1C" stroke-width="32" stroke-linejoin="round"/>
      <path transform="translate(542.55,512.26) scale(0.14400,-0.14400)" d="M20 0V164H70V614H20V778H400V614H350V164H400V0Z" fill="#B07A1C" stroke="#B07A1C" stroke-width="32" stroke-linejoin="round"/>
      <path transform="translate(607.03,512.26) scale(0.14400,-0.14400)" d="M774 250H724V50Q680 25 595.5 5.5Q511 -14 413 -14Q226 -14 120.0 84.5Q14 183 14 389Q14 600 119.5 696.0Q225 792 421 792Q516 792 599.0 772.0Q682 752 724 727V488H474V535Q474 577 456.5 595.5Q439 614 401 614Q363 614 345.5 595.5Q328 577 328 535V243Q328 201 345.5 182.5Q363 164 401 164Q439 164 456.5 182.5Q474 201 474 243V250H420V399H774Z" fill="#B07A1C" stroke="#B07A1C" stroke-width="32" stroke-linejoin="round"/>
      <path transform="translate(723.64,512.26) scale(0.14400,-0.14400)" d="M820 614H770V164H820V0H442V164H490V329H350V164H398V0H20V164H70V614H20V778H398V614H350V462H490V614H442V778H820Z" fill="#B07A1C" stroke="#B07A1C" stroke-width="32" stroke-linejoin="round"/>
      <path transform="translate(848.59,512.26) scale(0.14400,-0.14400)" d="M766 536H594V614H530V164H600V0H180V164H250V614H186V536H14V778H766Z" fill="#B07A1C" stroke="#B07A1C" stroke-width="32" stroke-linejoin="round"/>
      <path transform="translate(964.91,512.26) scale(0.14400,-0.14400)" d="M20 0V164H70V614H20V778H695V476H471V614H350V456H438V342H350V164H471V322H695V0Z" fill="#B07A1C" stroke="#B07A1C" stroke-width="32" stroke-linejoin="round"/>
      <path transform="translate(1071.58,512.26) scale(0.14400,-0.14400)" d="M20 164H70V614H20V778H479Q608 778 676.0 725.0Q744 672 744 553Q744 486 717.0 437.0Q690 388 640 369L641 359Q737 344 737 241V164H784V0H467V235Q467 274 455.5 294.0Q444 314 419.5 321.0Q395 328 350 328V164H416V0H20ZM404 450Q433 450 447.5 465.5Q462 481 462 514V550Q462 583 447.5 598.5Q433 614 404 614H350V450Z" fill="#B07A1C" stroke="#B07A1C" stroke-width="32" stroke-linejoin="round"/>
      <path transform="translate(1190.78,512.26) scale(0.14400,-0.14400)" d="M17 40V238H237Q237 207 251.0 193.0Q265 179 302 179Q333 179 346.5 188.5Q360 198 360 217Q360 233 347.0 244.5Q334 256 302 268L216 298Q105 340 56.5 397.0Q8 454 8 551Q8 669 85.5 730.5Q163 792 344 792Q431 792 507.5 774.5Q584 757 631 728V549H431Q431 599 369 599Q339 599 326.5 591.5Q314 584 314 565Q314 548 328.5 538.0Q343 528 376 517L463 487Q569 451 617.5 393.5Q666 336 666 243Q666 116 580.5 51.0Q495 -14 330 -14Q234 -14 148.5 2.5Q63 19 17 40Z" fill="#B07A1C" stroke="#B07A1C" stroke-width="32" stroke-linejoin="round"/>
    </g>
    <g transform="translate(10,10)">
      <path transform="translate(62.16,512.26) scale(0.14400,-0.14400)" d="M20 0V164H70V614H20V778H618V519H441V614H350V448H501V334H350V164H481V0Z" fill="#B07A1C" stroke="#B07A1C" stroke-width="32" stroke-linejoin="round"/>
      <path transform="translate(157.17,512.26) scale(0.14400,-0.14400)" d="M20 0V164H70V614H20V778H400V614H350V164H400V0Z" fill="#B07A1C" stroke="#B07A1C" stroke-width="32" stroke-linejoin="round"/>
      <path transform="translate(221.66,512.26) scale(0.14400,-0.14400)" d="M20 164H70V614H20V778H479Q608 778 676.0 725.0Q744 672 744 553Q744 486 717.0 437.0Q690 388 640 369L641 359Q737 344 737 241V164H784V0H467V235Q467 274 455.5 294.0Q444 314 419.5 321.0Q395 328 350 328V164H416V0H20ZM404 450Q433 450 447.5 465.5Q462 481 462 514V550Q462 583 447.5 598.5Q433 614 404 614H350V450Z" fill="#B07A1C" stroke="#B07A1C" stroke-width="32" stroke-linejoin="round"/>
      <path transform="translate(340.86,512.26) scale(0.14400,-0.14400)" d="M20 0V164H70V614H20V778H695V476H471V614H350V456H438V342H350V164H471V322H695V0Z" fill="#B07A1C" stroke="#B07A1C" stroke-width="32" stroke-linejoin="round"/>
      <path transform="translate(447.53,512.26) scale(0.14400,-0.14400)" d="M20 0V164H70V614H20V778H618V519H441V614H350V448H501V334H350V164H481V0Z" fill="#B07A1C" stroke="#B07A1C" stroke-width="32" stroke-linejoin="round"/>
      <path transform="translate(542.55,512.26) scale(0.14400,-0.14400)" d="M20 0V164H70V614H20V778H400V614H350V164H400V0Z" fill="#B07A1C" stroke="#B07A1C" stroke-width="32" stroke-linejoin="round"/>
      <path transform="translate(607.03,512.26) scale(0.14400,-0.14400)" d="M774 250H724V50Q680 25 595.5 5.5Q511 -14 413 -14Q226 -14 120.0 84.5Q14 183 14 389Q14 600 119.5 696.0Q225 792 421 792Q516 792 599.0 772.0Q682 752 724 727V488H474V535Q474 577 456.5 595.5Q439 614 401 614Q363 614 345.5 595.5Q328 577 328 535V243Q328 201 345.5 182.5Q363 164 401 164Q439 164 456.5 182.5Q474 201 474 243V250H420V399H774Z" fill="#B07A1C" stroke="#B07A1C" stroke-width="32" stroke-linejoin="round"/>
      <path transform="translate(723.64,512.26) scale(0.14400,-0.14400)" d="M820 614H770V164H820V0H442V164H490V329H350V164H398V0H20V164H70V614H20V778H398V614H350V462H490V614H442V778H820Z" fill="#B07A1C" stroke="#B07A1C" stroke-width="32" stroke-linejoin="round"/>
      <path transform="translate(848.59,512.26) scale(0.14400,-0.14400)" d="M766 536H594V614H530V164H600V0H180V164H250V614H186V536H14V778H766Z" fill="#B07A1C" stroke="#B07A1C" stroke-width="32" stroke-linejoin="round"/>
      <path transform="translate(964.91,512.26) scale(0.14400,-0.14400)" d="M20 0V164H70V614H20V778H695V476H471V614H350V456H438V342H350V164H471V322H695V0Z" fill="#B07A1C" stroke="#B07A1C" stroke-width="32" stroke-linejoin="round"/>
      <path transform="translate(1071.58,512.26) scale(0.14400,-0.14400)" d="M20 164H70V614H20V778H479Q608 778 676.0 725.0Q744 672 744 553Q744 486 717.0 437.0Q690 388 640 369L641 359Q737 344 737 241V164H784V0H467V235Q467 274 455.5 294.0Q444 314 419.5 321.0Q395 328 350 328V164H416V0H20ZM404 450Q433 450 447.5 465.5Q462 481 462 514V550Q462 583 447.5 598.5Q433 614 404 614H350V450Z" fill="#B07A1C" stroke="#B07A1C" stroke-width="32" stroke-linejoin="round"/>
      <path transform="translate(1190.78,512.26) scale(0.14400,-0.14400)" d="M17 40V238H237Q237 207 251.0 193.0Q265 179 302 179Q333 179 346.5 188.5Q360 198 360 217Q360 233 347.0 244.5Q334 256 302 268L216 298Q105 340 56.5 397.0Q8 454 8 551Q8 669 85.5 730.5Q163 792 344 792Q431 792 507.5 774.5Q584 757 631 728V549H431Q431 599 369 599Q339 599 326.5 591.5Q314 584 314 565Q314 548 328.5 538.0Q343 528 376 517L463 487Q569 451 617.5 393.5Q666 336 666 243Q666 116 580.5 51.0Q495 -14 330 -14Q234 -14 148.5 2.5Q63 19 17 40Z" fill="#B07A1C" stroke="#B07A1C" stroke-width="32" stroke-linejoin="round"/>
    </g>
    <g transform="translate(8,8)">
      <path transform="translate(62.16,512.26) scale(0.14400,-0.14400)" d="M20 0V164H70V614H20V778H618V519H441V614H350V448H501V334H350V164H481V0Z" fill="#E9B23B" stroke="#E9B23B" stroke-width="32" stroke-linejoin="round"/>
      <path transform="translate(157.17,512.26) scale(0.14400,-0.14400)" d="M20 0V164H70V614H20V778H400V614H350V164H400V0Z" fill="#E9B23B" stroke="#E9B23B" stroke-width="32" stroke-linejoin="round"/>
      <path transform="translate(221.66,512.26) scale(0.14400,-0.14400)" d="M20 164H70V614H20V778H479Q608 778 676.0 725.0Q744 672 744 553Q744 486 717.0 437.0Q690 388 640 369L641 359Q737 344 737 241V164H784V0H467V235Q467 274 455.5 294.0Q444 314 419.5 321.0Q395 328 350 328V164H416V0H20ZM404 450Q433 450 447.5 465.5Q462 481 462 514V550Q462 583 447.5 598.5Q433 614 404 614H350V450Z" fill="#E9B23B" stroke="#E9B23B" stroke-width="32" stroke-linejoin="round"/>
      <path transform="translate(340.86,512.26) scale(0.14400,-0.14400)" d="M20 0V164H70V614H20V778H695V476H471V614H350V456H438V342H350V164H471V322H695V0Z" fill="#E9B23B" stroke="#E9B23B" stroke-width="32" stroke-linejoin="round"/>
      <path transform="translate(447.53,512.26) scale(0.14400,-0.14400)" d="M20 0V164H70V614H20V778H618V519H441V614H350V448H501V334H350V164H481V0Z" fill="#E9B23B" stroke="#E9B23B" stroke-width="32" stroke-linejoin="round"/>
      <path transform="translate(542.55,512.26) scale(0.14400,-0.14400)" d="M20 0V164H70V614H20V778H400V614H350V164H400V0Z" fill="#E9B23B" stroke="#E9B23B" stroke-width="32" stroke-linejoin="round"/>
      <path transform="translate(607.03,512.26) scale(0.14400,-0.14400)" d="M774 250H724V50Q680 25 595.5 5.5Q511 -14 413 -14Q226 -14 120.0 84.5Q14 183 14 389Q14 600 119.5 696.0Q225 792 421 792Q516 792 599.0 772.0Q682 752 724 727V488H474V535Q474 577 456.5 595.5Q439 614 401 614Q363 614 345.5 595.5Q328 577 328 535V243Q328 201 345.5 182.5Q363 164 401 164Q439 164 456.5 182.5Q474 201 474 243V250H420V399H774Z" fill="#E9B23B" stroke="#E9B23B" stroke-width="32" stroke-linejoin="round"/>
      <path transform="translate(723.64,512.26) scale(0.14400,-0.14400)" d="M820 614H770V164H820V0H442V164H490V329H350V164H398V0H20V164H70V614H20V778H398V614H350V462H490V614H442V778H820Z" fill="#E9B23B" stroke="#E9B23B" stroke-width="32" stroke-linejoin="round"/>
      <path transform="translate(848.59,512.26) scale(0.14400,-0.14400)" d="M766 536H594V614H530V164H600V0H180V164H250V614H186V536H14V778H766Z" fill="#E9B23B" stroke="#E9B23B" stroke-width="32" stroke-linejoin="round"/>
      <path transform="translate(964.91,512.26) scale(0.14400,-0.14400)" d="M20 0V164H70V614H20V778H695V476H471V614H350V456H438V342H350V164H471V322H695V0Z" fill="#E9B23B" stroke="#E9B23B" stroke-width="32" stroke-linejoin="round"/>
      <path transform="translate(1071.58,512.26) scale(0.14400,-0.14400)" d="M20 164H70V614H20V778H479Q608 778 676.0 725.0Q744 672 744 553Q744 486 717.0 437.0Q690 388 640 369L641 359Q737 344 737 241V164H784V0H467V235Q467 274 455.5 294.0Q444 314 419.5 321.0Q395 328 350 328V164H416V0H20ZM404 450Q433 450 447.5 465.5Q462 481 462 514V550Q462 583 447.5 598.5Q433 614 404 614H350V450Z" fill="#E9B23B" stroke="#E9B23B" stroke-width="32" stroke-linejoin="round"/>
      <path transform="translate(1190.78,512.26) scale(0.14400,-0.14400)" d="M17 40V238H237Q237 207 251.0 193.0Q265 179 302 179Q333 179 346.5 188.5Q360 198 360 217Q360 233 347.0 244.5Q334 256 302 268L216 298Q105 340 56.5 397.0Q8 454 8 551Q8 669 85.5 730.5Q163 792 344 792Q431 792 507.5 774.5Q584 757 631 728V549H431Q431 599 369 599Q339 599 326.5 591.5Q314 584 314 565Q314 548 328.5 538.0Q343 528 376 517L463 487Q569 451 617.5 393.5Q666 336 666 243Q666 116 580.5 51.0Q495 -14 330 -14Q234 -14 148.5 2.5Q63 19 17 40Z" fill="#E9B23B" stroke="#E9B23B" stroke-width="32" stroke-linejoin="round"/>
    </g>
    <g transform="translate(6,6)">
      <path transform="translate(62.16,512.26) scale(0.14400,-0.14400)" d="M20 0V164H70V614H20V778H618V519H441V614H350V448H501V334H350V164H481V0Z" fill="#E9B23B" stroke="#E9B23B" stroke-width="32" stroke-linejoin="round"/>
      <path transform="translate(157.17,512.26) scale(0.14400,-0.14400)" d="M20 0V164H70V614H20V778H400V614H350V164H400V0Z" fill="#E9B23B" stroke="#E9B23B" stroke-width="32" stroke-linejoin="round"/>
      <path transform="translate(221.66,512.26) scale(0.14400,-0.14400)" d="M20 164H70V614H20V778H479Q608 778 676.0 725.0Q744 672 744 553Q744 486 717.0 437.0Q690 388 640 369L641 359Q737 344 737 241V164H784V0H467V235Q467 274 455.5 294.0Q444 314 419.5 321.0Q395 328 350 328V164H416V0H20ZM404 450Q433 450 447.5 465.5Q462 481 462 514V550Q462 583 447.5 598.5Q433 614 404 614H350V450Z" fill="#E9B23B" stroke="#E9B23B" stroke-width="32" stroke-linejoin="round"/>
      <path transform="translate(340.86,512.26) scale(0.14400,-0.14400)" d="M20 0V164H70V614H20V778H695V476H471V614H350V456H438V342H350V164H471V322H695V0Z" fill="#E9B23B" stroke="#E9B23B" stroke-width="32" stroke-linejoin="round"/>
      <path transform="translate(447.53,512.26) scale(0.14400,-0.14400)" d="M20 0V164H70V614H20V778H618V519H441V614H350V448H501V334H350V164H481V0Z" fill="#E9B23B" stroke="#E9B23B" stroke-width="32" stroke-linejoin="round"/>
      <path transform="translate(542.55,512.26) scale(0.14400,-0.14400)" d="M20 0V164H70V614H20V778H400V614H350V164H400V0Z" fill="#E9B23B" stroke="#E9B23B" stroke-width="32" stroke-linejoin="round"/>
      <path transform="translate(607.03,512.26) scale(0.14400,-0.14400)" d="M774 250H724V50Q680 25 595.5 5.5Q511 -14 413 -14Q226 -14 120.0 84.5Q14 183 14 389Q14 600 119.5 696.0Q225 792 421 792Q516 792 599.0 772.0Q682 752 724 727V488H474V535Q474 577 456.5 595.5Q439 614 401 614Q363 614 345.5 595.5Q328 577 328 535V243Q328 201 345.5 182.5Q363 164 401 164Q439 164 456.5 182.5Q474 201 474 243V250H420V399H774Z" fill="#E9B23B" stroke="#E9B23B" stroke-width="32" stroke-linejoin="round"/>
      <path transform="translate(723.64,512.26) scale(0.14400,-0.14400)" d="M820 614H770V164H820V0H442V164H490V329H350V164H398V0H20V164H70V614H20V778H398V614H350V462H490V614H442V778H820Z" fill="#E9B23B" stroke="#E9B23B" stroke-width="32" stroke-linejoin="round"/>
      <path transform="translate(848.59,512.26) scale(0.14400,-0.14400)" d="M766 536H594V614H530V164H600V0H180V164H250V614H186V536H14V778H766Z" fill="#E9B23B" stroke="#E9B23B" stroke-width="32" stroke-linejoin="round"/>
      <path transform="translate(964.91,512.26) scale(0.14400,-0.14400)" d="M20 0V164H70V614H20V778H695V476H471V614H350V456H438V342H350V164H471V322H695V0Z" fill="#E9B23B" stroke="#E9B23B" stroke-width="32" stroke-linejoin="round"/>
      <path transform="translate(1071.58,512.26) scale(0.14400,-0.14400)" d="M20 164H70V614H20V778H479Q608 778 676.0 725.0Q744 672 744 553Q744 486 717.0 437.0Q690 388 640 369L641 359Q737 344 737 241V164H784V0H467V235Q467 274 455.5 294.0Q444 314 419.5 321.0Q395 328 350 328V164H416V0H20ZM404 450Q433 450 447.5 465.5Q462 481 462 514V550Q462 583 447.5 598.5Q433 614 404 614H350V450Z" fill="#E9B23B" stroke="#E9B23B" stroke-width="32" stroke-linejoin="round"/>
      <path transform="translate(1190.78,512.26) scale(0.14400,-0.14400)" d="M17 40V238H237Q237 207 251.0 193.0Q265 179 302 179Q333 179 346.5 188.5Q360 198 360 217Q360 233 347.0 244.5Q334 256 302 268L216 298Q105 340 56.5 397.0Q8 454 8 551Q8 669 85.5 730.5Q163 792 344 792Q431 792 507.5 774.5Q584 757 631 728V549H431Q431 599 369 599Q339 599 326.5 591.5Q314 584 314 565Q314 548 328.5 538.0Q343 528 376 517L463 487Q569 451 617.5 393.5Q666 336 666 243Q666 116 580.5 51.0Q495 -14 330 -14Q234 -14 148.5 2.5Q63 19 17 40Z" fill="#E9B23B" stroke="#E9B23B" stroke-width="32" stroke-linejoin="round"/>
    </g>
    <g transform="translate(4,4)">
      <path transform="translate(62.16,512.26) scale(0.14400,-0.14400)" d="M20 0V164H70V614H20V778H618V519H441V614H350V448H501V334H350V164H481V0Z" fill="#E9B23B" stroke="#E9B23B" stroke-width="32" stroke-linejoin="round"/>
      <path transform="translate(157.17,512.26) scale(0.14400,-0.14400)" d="M20 0V164H70V614H20V778H400V614H350V164H400V0Z" fill="#E9B23B" stroke="#E9B23B" stroke-width="32" stroke-linejoin="round"/>
      <path transform="translate(221.66,512.26) scale(0.14400,-0.14400)" d="M20 164H70V614H20V778H479Q608 778 676.0 725.0Q744 672 744 553Q744 486 717.0 437.0Q690 388 640 369L641 359Q737 344 737 241V164H784V0H467V235Q467 274 455.5 294.0Q444 314 419.5 321.0Q395 328 350 328V164H416V0H20ZM404 450Q433 450 447.5 465.5Q462 481 462 514V550Q462 583 447.5 598.5Q433 614 404 614H350V450Z" fill="#E9B23B" stroke="#E9B23B" stroke-width="32" stroke-linejoin="round"/>
      <path transform="translate(340.86,512.26) scale(0.14400,-0.14400)" d="M20 0V164H70V614H20V778H695V476H471V614H350V456H438V342H350V164H471V322H695V0Z" fill="#E9B23B" stroke="#E9B23B" stroke-width="32" stroke-linejoin="round"/>
      <path transform="translate(447.53,512.26) scale(0.14400,-0.14400)" d="M20 0V164H70V614H20V778H618V519H441V614H350V448H501V334H350V164H481V0Z" fill="#E9B23B" stroke="#E9B23B" stroke-width="32" stroke-linejoin="round"/>
      <path transform="translate(542.55,512.26) scale(0.14400,-0.14400)" d="M20 0V164H70V614H20V778H400V614H350V164H400V0Z" fill="#E9B23B" stroke="#E9B23B" stroke-width="32" stroke-linejoin="round"/>
      <path transform="translate(607.03,512.26) scale(0.14400,-0.14400)" d="M774 250H724V50Q680 25 595.5 5.5Q511 -14 413 -14Q226 -14 120.0 84.5Q14 183 14 389Q14 600 119.5 696.0Q225 792 421 792Q516 792 599.0 772.0Q682 752 724 727V488H474V535Q474 577 456.5 595.5Q439 614 401 614Q363 614 345.5 595.5Q328 577 328 535V243Q328 201 345.5 182.5Q363 164 401 164Q439 164 456.5 182.5Q474 201 474 243V250H420V399H774Z" fill="#E9B23B" stroke="#E9B23B" stroke-width="32" stroke-linejoin="round"/>
      <path transform="translate(723.64,512.26) scale(0.14400,-0.14400)" d="M820 614H770V164H820V0H442V164H490V329H350V164H398V0H20V164H70V614H20V778H398V614H350V462H490V614H442V778H820Z" fill="#E9B23B" stroke="#E9B23B" stroke-width="32" stroke-linejoin="round"/>
      <path transform="translate(848.59,512.26) scale(0.14400,-0.14400)" d="M766 536H594V614H530V164H600V0H180V164H250V614H186V536H14V778H766Z" fill="#E9B23B" stroke="#E9B23B" stroke-width="32" stroke-linejoin="round"/>
      <path transform="translate(964.91,512.26) scale(0.14400,-0.14400)" d="M20 0V164H70V614H20V778H695V476H471V614H350V456H438V342H350V164H471V322H695V0Z" fill="#E9B23B" stroke="#E9B23B" stroke-width="32" stroke-linejoin="round"/>
      <path transform="translate(1071.58,512.26) scale(0.14400,-0.14400)" d="M20 164H70V614H20V778H479Q608 778 676.0 725.0Q744 672 744 553Q744 486 717.0 437.0Q690 388 640 369L641 359Q737 344 737 241V164H784V0H467V235Q467 274 455.5 294.0Q444 314 419.5 321.0Q395 328 350 328V164H416V0H20ZM404 450Q433 450 447.5 465.5Q462 481 462 514V550Q462 583 447.5 598.5Q433 614 404 614H350V450Z" fill="#E9B23B" stroke="#E9B23B" stroke-width="32" stroke-linejoin="round"/>
      <path transform="translate(1190.78,512.26) scale(0.14400,-0.14400)" d="M17 40V238H237Q237 207 251.0 193.0Q265 179 302 179Q333 179 346.5 188.5Q360 198 360 217Q360 233 347.0 244.5Q334 256 302 268L216 298Q105 340 56.5 397.0Q8 454 8 551Q8 669 85.5 730.5Q163 792 344 792Q431 792 507.5 774.5Q584 757 631 728V549H431Q431 599 369 599Q339 599 326.5 591.5Q314 584 314 565Q314 548 328.5 538.0Q343 528 376 517L463 487Q569 451 617.5 393.5Q666 336 666 243Q666 116 580.5 51.0Q495 -14 330 -14Q234 -14 148.5 2.5Q63 19 17 40Z" fill="#E9B23B" stroke="#E9B23B" stroke-width="32" stroke-linejoin="round"/>
    </g>
    <g transform="translate(2,2)">
      <path transform="translate(62.16,512.26) scale(0.14400,-0.14400)" d="M20 0V164H70V614H20V778H618V519H441V614H350V448H501V334H350V164H481V0Z" fill="#E9B23B" stroke="#E9B23B" stroke-width="32" stroke-linejoin="round"/>
      <path transform="translate(157.17,512.26) scale(0.14400,-0.14400)" d="M20 0V164H70V614H20V778H400V614H350V164H400V0Z" fill="#E9B23B" stroke="#E9B23B" stroke-width="32" stroke-linejoin="round"/>
      <path transform="translate(221.66,512.26) scale(0.14400,-0.14400)" d="M20 164H70V614H20V778H479Q608 778 676.0 725.0Q744 672 744 553Q744 486 717.0 437.0Q690 388 640 369L641 359Q737 344 737 241V164H784V0H467V235Q467 274 455.5 294.0Q444 314 419.5 321.0Q395 328 350 328V164H416V0H20ZM404 450Q433 450 447.5 465.5Q462 481 462 514V550Q462 583 447.5 598.5Q433 614 404 614H350V450Z" fill="#E9B23B" stroke="#E9B23B" stroke-width="32" stroke-linejoin="round"/>
      <path transform="translate(340.86,512.26) scale(0.14400,-0.14400)" d="M20 0V164H70V614H20V778H695V476H471V614H350V456H438V342H350V164H471V322H695V0Z" fill="#E9B23B" stroke="#E9B23B" stroke-width="32" stroke-linejoin="round"/>
      <path transform="translate(447.53,512.26) scale(0.14400,-0.14400)" d="M20 0V164H70V614H20V778H618V519H441V614H350V448H501V334H350V164H481V0Z" fill="#E9B23B" stroke="#E9B23B" stroke-width="32" stroke-linejoin="round"/>
      <path transform="translate(542.55,512.26) scale(0.14400,-0.14400)" d="M20 0V164H70V614H20V778H400V614H350V164H400V0Z" fill="#E9B23B" stroke="#E9B23B" stroke-width="32" stroke-linejoin="round"/>
      <path transform="translate(607.03,512.26) scale(0.14400,-0.14400)" d="M774 250H724V50Q680 25 595.5 5.5Q511 -14 413 -14Q226 -14 120.0 84.5Q14 183 14 389Q14 600 119.5 696.0Q225 792 421 792Q516 792 599.0 772.0Q682 752 724 727V488H474V535Q474 577 456.5 595.5Q439 614 401 614Q363 614 345.5 595.5Q328 577 328 535V243Q328 201 345.5 182.5Q363 164 401 164Q439 164 456.5 182.5Q474 201 474 243V250H420V399H774Z" fill="#E9B23B" stroke="#E9B23B" stroke-width="32" stroke-linejoin="round"/>
      <path transform="translate(723.64,512.26) scale(0.14400,-0.14400)" d="M820 614H770V164H820V0H442V164H490V329H350V164H398V0H20V164H70V614H20V778H398V614H350V462H490V614H442V778H820Z" fill="#E9B23B" stroke="#E9B23B" stroke-width="32" stroke-linejoin="round"/>
      <path transform="translate(848.59,512.26) scale(0.14400,-0.14400)" d="M766 536H594V614H530V164H600V0H180V164H250V614H186V536H14V778H766Z" fill="#E9B23B" stroke="#E9B23B" stroke-width="32" stroke-linejoin="round"/>
      <path transform="translate(964.91,512.26) scale(0.14400,-0.14400)" d="M20 0V164H70V614H20V778H695V476H471V614H350V456H438V342H350V164H471V322H695V0Z" fill="#E9B23B" stroke="#E9B23B" stroke-width="32" stroke-linejoin="round"/>
      <path transform="translate(1071.58,512.26) scale(0.14400,-0.14400)" d="M20 164H70V614H20V778H479Q608 778 676.0 725.0Q744 672 744 553Q744 486 717.0 437.0Q690 388 640 369L641 359Q737 344 737 241V164H784V0H467V235Q467 274 455.5 294.0Q444 314 419.5 321.0Q395 328 350 328V164H416V0H20ZM404 450Q433 450 447.5 465.5Q462 481 462 514V550Q462 583 447.5 598.5Q433 614 404 614H350V450Z" fill="#E9B23B" stroke="#E9B23B" stroke-width="32" stroke-linejoin="round"/>
      <path transform="translate(1190.78,512.26) scale(0.14400,-0.14400)" d="M17 40V238H237Q237 207 251.0 193.0Q265 179 302 179Q333 179 346.5 188.5Q360 198 360 217Q360 233 347.0 244.5Q334 256 302 268L216 298Q105 340 56.5 397.0Q8 454 8 551Q8 669 85.5 730.5Q163 792 344 792Q431 792 507.5 774.5Q584 757 631 728V549H431Q431 599 369 599Q339 599 326.5 591.5Q314 584 314 565Q314 548 328.5 538.0Q343 528 376 517L463 487Q569 451 617.5 393.5Q666 336 666 243Q666 116 580.5 51.0Q495 -14 330 -14Q234 -14 148.5 2.5Q63 19 17 40Z" fill="#E9B23B" stroke="#E9B23B" stroke-width="32" stroke-linejoin="round"/>
    </g>
  </g>
  <g id="ink-outline">
      <path transform="translate(386.98,340.22) scale(0.22300,-0.22300)" d="M20 164H70V614H20V778H459Q588 778 656.0 722.5Q724 667 724 543Q724 419 656.0 363.5Q588 308 459 308H350V164H446V0H20ZM384 450Q442 450 442 514V550Q442 583 427.5 598.5Q413 614 384 614H350V450Z" fill="#2A1A10" stroke="#2A1A10" stroke-width="36" stroke-linejoin="round"/>
      <path transform="translate(559.56,340.22) scale(0.22300,-0.22300)" d="M20 0V164H70V614H20V778H400V614H350V164H400V0Z" fill="#2A1A10" stroke="#2A1A10" stroke-width="36" stroke-linejoin="round"/>
      <path transform="translate(661.22,340.22) scale(0.22300,-0.22300)" d="M774 250H724V50Q680 25 595.5 5.5Q511 -14 413 -14Q226 -14 120.0 84.5Q14 183 14 389Q14 600 119.5 696.0Q225 792 421 792Q516 792 599.0 772.0Q682 752 724 727V488H474V535Q474 577 456.5 595.5Q439 614 401 614Q363 614 345.5 595.5Q328 577 328 535V243Q328 201 345.5 182.5Q363 164 401 164Q439 164 456.5 182.5Q474 201 474 243V250H420V399H774Z" fill="#2A1A10" stroke="#2A1A10" stroke-width="36" stroke-linejoin="round"/>
      <path transform="translate(843.61,340.22) scale(0.22300,-0.22300)" d="M774 250H724V50Q680 25 595.5 5.5Q511 -14 413 -14Q226 -14 120.0 84.5Q14 183 14 389Q14 600 119.5 696.0Q225 792 421 792Q516 792 599.0 772.0Q682 752 724 727V488H474V535Q474 577 456.5 595.5Q439 614 401 614Q363 614 345.5 595.5Q328 577 328 535V243Q328 201 345.5 182.5Q363 164 401 164Q439 164 456.5 182.5Q474 201 474 243V250H420V399H774Z" fill="#2A1A10" stroke="#2A1A10" stroke-width="36" stroke-linejoin="round"/>
      <path transform="translate(1026.00,340.22) scale(0.22300,-0.22300)" d="M457 778H764V614H724L531 268V164H581V0H201V164H251V268L52 614H12V778H399V614H364L423 459H433L492 614H457Z" fill="#2A1A10" stroke="#2A1A10" stroke-width="36" stroke-linejoin="round"/>
      <path transform="translate(62.16,512.26) scale(0.14400,-0.14400)" d="M20 0V164H70V614H20V778H618V519H441V614H350V448H501V334H350V164H481V0Z" fill="#2A1A10" stroke="#2A1A10" stroke-width="32" stroke-linejoin="round"/>
      <path transform="translate(157.17,512.26) scale(0.14400,-0.14400)" d="M20 0V164H70V614H20V778H400V614H350V164H400V0Z" fill="#2A1A10" stroke="#2A1A10" stroke-width="32" stroke-linejoin="round"/>
      <path transform="translate(221.66,512.26) scale(0.14400,-0.14400)" d="M20 164H70V614H20V778H479Q608 778 676.0 725.0Q744 672 744 553Q744 486 717.0 437.0Q690 388 640 369L641 359Q737 344 737 241V164H784V0H467V235Q467 274 455.5 294.0Q444 314 419.5 321.0Q395 328 350 328V164H416V0H20ZM404 450Q433 450 447.5 465.5Q462 481 462 514V550Q462 583 447.5 598.5Q433 614 404 614H350V450Z" fill="#2A1A10" stroke="#2A1A10" stroke-width="32" stroke-linejoin="round"/>
      <path transform="translate(340.86,512.26) scale(0.14400,-0.14400)" d="M20 0V164H70V614H20V778H695V476H471V614H350V456H438V342H350V164H471V322H695V0Z" fill="#2A1A10" stroke="#2A1A10" stroke-width="32" stroke-linejoin="round"/>
      <path transform="translate(447.53,512.26) scale(0.14400,-0.14400)" d="M20 0V164H70V614H20V778H618V519H441V614H350V448H501V334H350V164H481V0Z" fill="#2A1A10" stroke="#2A1A10" stroke-width="32" stroke-linejoin="round"/>
      <path transform="translate(542.55,512.26) scale(0.14400,-0.14400)" d="M20 0V164H70V614H20V778H400V614H350V164H400V0Z" fill="#2A1A10" stroke="#2A1A10" stroke-width="32" stroke-linejoin="round"/>
      <path transform="translate(607.03,512.26) scale(0.14400,-0.14400)" d="M774 250H724V50Q680 25 595.5 5.5Q511 -14 413 -14Q226 -14 120.0 84.5Q14 183 14 389Q14 600 119.5 696.0Q225 792 421 792Q516 792 599.0 772.0Q682 752 724 727V488H474V535Q474 577 456.5 595.5Q439 614 401 614Q363 614 345.5 595.5Q328 577 328 535V243Q328 201 345.5 182.5Q363 164 401 164Q439 164 456.5 182.5Q474 201 474 243V250H420V399H774Z" fill="#2A1A10" stroke="#2A1A10" stroke-width="32" stroke-linejoin="round"/>
      <path transform="translate(723.64,512.26) scale(0.14400,-0.14400)" d="M820 614H770V164H820V0H442V164H490V329H350V164H398V0H20V164H70V614H20V778H398V614H350V462H490V614H442V778H820Z" fill="#2A1A10" stroke="#2A1A10" stroke-width="32" stroke-linejoin="round"/>
      <path transform="translate(848.59,512.26) scale(0.14400,-0.14400)" d="M766 536H594V614H530V164H600V0H180V164H250V614H186V536H14V778H766Z" fill="#2A1A10" stroke="#2A1A10" stroke-width="32" stroke-linejoin="round"/>
      <path transform="translate(964.91,512.26) scale(0.14400,-0.14400)" d="M20 0V164H70V614H20V778H695V476H471V614H350V456H438V342H350V164H471V322H695V0Z" fill="#2A1A10" stroke="#2A1A10" stroke-width="32" stroke-linejoin="round"/>
      <path transform="translate(1071.58,512.26) scale(0.14400,-0.14400)" d="M20 164H70V614H20V778H479Q608 778 676.0 725.0Q744 672 744 553Q744 486 717.0 437.0Q690 388 640 369L641 359Q737 344 737 241V164H784V0H467V235Q467 274 455.5 294.0Q444 314 419.5 321.0Q395 328 350 328V164H416V0H20ZM404 450Q433 450 447.5 465.5Q462 481 462 514V550Q462 583 447.5 598.5Q433 614 404 614H350V450Z" fill="#2A1A10" stroke="#2A1A10" stroke-width="32" stroke-linejoin="round"/>
      <path transform="translate(1190.78,512.26) scale(0.14400,-0.14400)" d="M17 40V238H237Q237 207 251.0 193.0Q265 179 302 179Q333 179 346.5 188.5Q360 198 360 217Q360 233 347.0 244.5Q334 256 302 268L216 298Q105 340 56.5 397.0Q8 454 8 551Q8 669 85.5 730.5Q163 792 344 792Q431 792 507.5 774.5Q584 757 631 728V549H431Q431 599 369 599Q339 599 326.5 591.5Q314 584 314 565Q314 548 328.5 538.0Q343 528 376 517L463 487Q569 451 617.5 393.5Q666 336 666 243Q666 116 580.5 51.0Q495 -14 330 -14Q234 -14 148.5 2.5Q63 19 17 40Z" fill="#2A1A10" stroke="#2A1A10" stroke-width="32" stroke-linejoin="round"/>
  </g>
  <g id="typography-faces">
      <path transform="translate(386.98,340.22) scale(0.22300,-0.22300)" d="M20 164H70V614H20V778H459Q588 778 656.0 722.5Q724 667 724 543Q724 419 656.0 363.5Q588 308 459 308H350V164H446V0H20ZM384 450Q442 450 442 514V550Q442 583 427.5 598.5Q413 614 384 614H350V450Z" fill="#F5D23C" />
      <path transform="translate(559.56,340.22) scale(0.22300,-0.22300)" d="M20 0V164H70V614H20V778H400V614H350V164H400V0Z" fill="#F5D23C" />
      <path transform="translate(661.22,340.22) scale(0.22300,-0.22300)" d="M774 250H724V50Q680 25 595.5 5.5Q511 -14 413 -14Q226 -14 120.0 84.5Q14 183 14 389Q14 600 119.5 696.0Q225 792 421 792Q516 792 599.0 772.0Q682 752 724 727V488H474V535Q474 577 456.5 595.5Q439 614 401 614Q363 614 345.5 595.5Q328 577 328 535V243Q328 201 345.5 182.5Q363 164 401 164Q439 164 456.5 182.5Q474 201 474 243V250H420V399H774Z" fill="#F5D23C" />
      <path transform="translate(843.61,340.22) scale(0.22300,-0.22300)" d="M774 250H724V50Q680 25 595.5 5.5Q511 -14 413 -14Q226 -14 120.0 84.5Q14 183 14 389Q14 600 119.5 696.0Q225 792 421 792Q516 792 599.0 772.0Q682 752 724 727V488H474V535Q474 577 456.5 595.5Q439 614 401 614Q363 614 345.5 595.5Q328 577 328 535V243Q328 201 345.5 182.5Q363 164 401 164Q439 164 456.5 182.5Q474 201 474 243V250H420V399H774Z" fill="#F5D23C" />
      <path transform="translate(1026.00,340.22) scale(0.22300,-0.22300)" d="M457 778H764V614H724L531 268V164H581V0H201V164H251V268L52 614H12V778H399V614H364L423 459H433L492 614H457Z" fill="#F5D23C" />
      <path transform="translate(62.16,512.26) scale(0.14400,-0.14400)" d="M20 0V164H70V614H20V778H618V519H441V614H350V448H501V334H350V164H481V0Z" fill="#F4E9D2" />
      <path transform="translate(157.17,512.26) scale(0.14400,-0.14400)" d="M20 0V164H70V614H20V778H400V614H350V164H400V0Z" fill="#F4E9D2" />
      <path transform="translate(221.66,512.26) scale(0.14400,-0.14400)" d="M20 164H70V614H20V778H479Q608 778 676.0 725.0Q744 672 744 553Q744 486 717.0 437.0Q690 388 640 369L641 359Q737 344 737 241V164H784V0H467V235Q467 274 455.5 294.0Q444 314 419.5 321.0Q395 328 350 328V164H416V0H20ZM404 450Q433 450 447.5 465.5Q462 481 462 514V550Q462 583 447.5 598.5Q433 614 404 614H350V450Z" fill="#F4E9D2" />
      <path transform="translate(340.86,512.26) scale(0.14400,-0.14400)" d="M20 0V164H70V614H20V778H695V476H471V614H350V456H438V342H350V164H471V322H695V0Z" fill="#F4E9D2" />
      <path transform="translate(447.53,512.26) scale(0.14400,-0.14400)" d="M20 0V164H70V614H20V778H618V519H441V614H350V448H501V334H350V164H481V0Z" fill="#F4E9D2" />
      <path transform="translate(542.55,512.26) scale(0.14400,-0.14400)" d="M20 0V164H70V614H20V778H400V614H350V164H400V0Z" fill="#F4E9D2" />
      <path transform="translate(607.03,512.26) scale(0.14400,-0.14400)" d="M774 250H724V50Q680 25 595.5 5.5Q511 -14 413 -14Q226 -14 120.0 84.5Q14 183 14 389Q14 600 119.5 696.0Q225 792 421 792Q516 792 599.0 772.0Q682 752 724 727V488H474V535Q474 577 456.5 595.5Q439 614 401 614Q363 614 345.5 595.5Q328 577 328 535V243Q328 201 345.5 182.5Q363 164 401 164Q439 164 456.5 182.5Q474 201 474 243V250H420V399H774Z" fill="#F4E9D2" />
      <path transform="translate(723.64,512.26) scale(0.14400,-0.14400)" d="M820 614H770V164H820V0H442V164H490V329H350V164H398V0H20V164H70V614H20V778H398V614H350V462H490V614H442V778H820Z" fill="#F4E9D2" />
      <path transform="translate(848.59,512.26) scale(0.14400,-0.14400)" d="M766 536H594V614H530V164H600V0H180V164H250V614H186V536H14V778H766Z" fill="#F4E9D2" />
      <path transform="translate(964.91,512.26) scale(0.14400,-0.14400)" d="M20 0V164H70V614H20V778H695V476H471V614H350V456H438V342H350V164H471V322H695V0Z" fill="#F4E9D2" />
      <path transform="translate(1071.58,512.26) scale(0.14400,-0.14400)" d="M20 164H70V614H20V778H479Q608 778 676.0 725.0Q744 672 744 553Q744 486 717.0 437.0Q690 388 640 369L641 359Q737 344 737 241V164H784V0H467V235Q467 274 455.5 294.0Q444 314 419.5 321.0Q395 328 350 328V164H416V0H20ZM404 450Q433 450 447.5 465.5Q462 481 462 514V550Q462 583 447.5 598.5Q433 614 404 614H350V450Z" fill="#F4E9D2" />
      <path transform="translate(1190.78,512.26) scale(0.14400,-0.14400)" d="M17 40V238H237Q237 207 251.0 193.0Q265 179 302 179Q333 179 346.5 188.5Q360 198 360 217Q360 233 347.0 244.5Q334 256 302 268L216 298Q105 340 56.5 397.0Q8 454 8 551Q8 669 85.5 730.5Q163 792 344 792Q431 792 507.5 774.5Q584 757 631 728V549H431Q431 599 369 599Q339 599 326.5 591.5Q314 584 314 565Q314 548 328.5 538.0Q343 528 376 517L463 487Q569 451 617.5 393.5Q666 336 666 243Q666 116 580.5 51.0Q495 -14 330 -14Q234 -14 148.5 2.5Q63 19 17 40Z" fill="#F4E9D2" />
  </g>
</svg>